<mxfile host="app.diagrams.net" agent="Mozilla/5.0 (Windows NT 10.0; Win64; x64) AppleWebKit/537.36 (KHTML, like Gecko) Chrome/134.0.0.0 Safari/537.36" version="26.1.1">
  <diagram name="Страница — 1" id="aDvDUmbyGlde5Zu6tPTn">
    <mxGraphModel dx="3088" dy="746" grid="1" gridSize="10" guides="1" tooltips="1" connect="1" arrows="1" fold="1" page="1" pageScale="1" pageWidth="827" pageHeight="1169" math="0" shadow="0">
      <root>
        <mxCell id="0" />
        <mxCell id="1" parent="0" />
        <mxCell id="G3Xb22IQ4b9X-IVwnKhT-98" style="edgeStyle=orthogonalEdgeStyle;rounded=0;orthogonalLoop=1;jettySize=auto;html=1;" edge="1" parent="1" source="G3Xb22IQ4b9X-IVwnKhT-5">
          <mxGeometry relative="1" as="geometry">
            <mxPoint x="540" y="580" as="targetPoint" />
          </mxGeometry>
        </mxCell>
        <mxCell id="G3Xb22IQ4b9X-IVwnKhT-100" style="edgeStyle=orthogonalEdgeStyle;rounded=0;orthogonalLoop=1;jettySize=auto;html=1;" edge="1" parent="1" source="G3Xb22IQ4b9X-IVwnKhT-5">
          <mxGeometry relative="1" as="geometry">
            <mxPoint x="90" y="485" as="targetPoint" />
          </mxGeometry>
        </mxCell>
        <mxCell id="G3Xb22IQ4b9X-IVwnKhT-5" value="Falconia" style="text;html=1;align=center;verticalAlign=middle;resizable=0;points=[];autosize=1;strokeColor=none;fillColor=none;" vertex="1" parent="1">
          <mxGeometry x="245" y="470" width="70" height="30" as="geometry" />
        </mxCell>
        <mxCell id="G3Xb22IQ4b9X-IVwnKhT-14" style="edgeStyle=orthogonalEdgeStyle;rounded=0;orthogonalLoop=1;jettySize=auto;html=1;" edge="1" parent="1" source="G3Xb22IQ4b9X-IVwnKhT-13">
          <mxGeometry relative="1" as="geometry">
            <mxPoint x="230" y="870" as="targetPoint" />
          </mxGeometry>
        </mxCell>
        <mxCell id="G3Xb22IQ4b9X-IVwnKhT-15" style="edgeStyle=orthogonalEdgeStyle;rounded=0;orthogonalLoop=1;jettySize=auto;html=1;" edge="1" parent="1" source="G3Xb22IQ4b9X-IVwnKhT-13">
          <mxGeometry relative="1" as="geometry">
            <mxPoint x="830" y="850" as="targetPoint" />
          </mxGeometry>
        </mxCell>
        <mxCell id="G3Xb22IQ4b9X-IVwnKhT-16" style="edgeStyle=orthogonalEdgeStyle;rounded=0;orthogonalLoop=1;jettySize=auto;html=1;" edge="1" parent="1" source="G3Xb22IQ4b9X-IVwnKhT-18">
          <mxGeometry relative="1" as="geometry">
            <mxPoint x="534" y="1390" as="targetPoint" />
          </mxGeometry>
        </mxCell>
        <mxCell id="G3Xb22IQ4b9X-IVwnKhT-121" style="edgeStyle=orthogonalEdgeStyle;rounded=0;orthogonalLoop=1;jettySize=auto;html=1;" edge="1" parent="1" source="G3Xb22IQ4b9X-IVwnKhT-13">
          <mxGeometry relative="1" as="geometry">
            <mxPoint x="-110" y="804.9999999999998" as="targetPoint" />
          </mxGeometry>
        </mxCell>
        <mxCell id="G3Xb22IQ4b9X-IVwnKhT-13" value="Главное меню" style="text;html=1;align=center;verticalAlign=middle;resizable=0;points=[];autosize=1;strokeColor=none;fillColor=none;" vertex="1" parent="1">
          <mxGeometry x="484" y="790" width="100" height="30" as="geometry" />
        </mxCell>
        <mxCell id="G3Xb22IQ4b9X-IVwnKhT-19" style="edgeStyle=orthogonalEdgeStyle;rounded=0;orthogonalLoop=1;jettySize=auto;html=1;" edge="1" parent="1" source="G3Xb22IQ4b9X-IVwnKhT-18">
          <mxGeometry relative="1" as="geometry">
            <mxPoint x="534" y="1450" as="targetPoint" />
          </mxGeometry>
        </mxCell>
        <mxCell id="G3Xb22IQ4b9X-IVwnKhT-20" value="Mini App со статьей, где это подробно описано" style="text;align=center;verticalAlign=middle;resizable=0;points=[];autosize=1;strokeColor=none;fillColor=none;html=1;horizontal=1;" vertex="1" parent="1">
          <mxGeometry x="394" y="1449" width="280" height="30" as="geometry" />
        </mxCell>
        <mxCell id="G3Xb22IQ4b9X-IVwnKhT-24" style="edgeStyle=orthogonalEdgeStyle;rounded=0;orthogonalLoop=1;jettySize=auto;html=1;" edge="1" parent="1" source="G3Xb22IQ4b9X-IVwnKhT-21">
          <mxGeometry relative="1" as="geometry">
            <mxPoint x="230" y="950" as="targetPoint" />
          </mxGeometry>
        </mxCell>
        <mxCell id="G3Xb22IQ4b9X-IVwnKhT-27" style="edgeStyle=orthogonalEdgeStyle;rounded=0;orthogonalLoop=1;jettySize=auto;html=1;" edge="1" parent="1" source="G3Xb22IQ4b9X-IVwnKhT-21">
          <mxGeometry relative="1" as="geometry">
            <mxPoint x="130" y="883" as="targetPoint" />
          </mxGeometry>
        </mxCell>
        <mxCell id="G3Xb22IQ4b9X-IVwnKhT-21" value="Личный кабинет" style="text;html=1;align=center;verticalAlign=middle;resizable=0;points=[];autosize=1;strokeColor=none;fillColor=none;" vertex="1" parent="1">
          <mxGeometry x="175" y="868" width="110" height="30" as="geometry" />
        </mxCell>
        <mxCell id="G3Xb22IQ4b9X-IVwnKhT-22" value="" style="edgeStyle=orthogonalEdgeStyle;rounded=0;orthogonalLoop=1;jettySize=auto;html=1;" edge="1" parent="1" source="G3Xb22IQ4b9X-IVwnKhT-13" target="G3Xb22IQ4b9X-IVwnKhT-18">
          <mxGeometry relative="1" as="geometry">
            <mxPoint x="534" y="980" as="targetPoint" />
            <mxPoint x="534" y="820" as="sourcePoint" />
          </mxGeometry>
        </mxCell>
        <mxCell id="G3Xb22IQ4b9X-IVwnKhT-18" value="Как извлечь выгоду из бота?" style="text;html=1;align=center;verticalAlign=middle;resizable=0;points=[];autosize=1;strokeColor=none;fillColor=none;" vertex="1" parent="1">
          <mxGeometry x="444" y="1391" width="180" height="30" as="geometry" />
        </mxCell>
        <mxCell id="G3Xb22IQ4b9X-IVwnKhT-28" style="edgeStyle=orthogonalEdgeStyle;rounded=0;orthogonalLoop=1;jettySize=auto;html=1;" edge="1" parent="1" source="G3Xb22IQ4b9X-IVwnKhT-26">
          <mxGeometry relative="1" as="geometry">
            <mxPoint x="230" y="1010" as="targetPoint" />
          </mxGeometry>
        </mxCell>
        <mxCell id="G3Xb22IQ4b9X-IVwnKhT-26" value="Показатели" style="text;html=1;align=center;verticalAlign=middle;resizable=0;points=[];autosize=1;strokeColor=none;fillColor=none;" vertex="1" parent="1">
          <mxGeometry x="185" y="948" width="90" height="30" as="geometry" />
        </mxCell>
        <mxCell id="G3Xb22IQ4b9X-IVwnKhT-53" value="List" style="swimlane;fontStyle=0;childLayout=stackLayout;horizontal=1;startSize=26;horizontalStack=0;resizeParent=1;resizeParentMax=0;resizeLast=0;collapsible=1;marginBottom=0;align=center;fontSize=14;" vertex="1" parent="1">
          <mxGeometry x="150" y="1030" width="160" height="116" as="geometry" />
        </mxCell>
        <mxCell id="G3Xb22IQ4b9X-IVwnKhT-54" value="Баланс" style="text;strokeColor=none;fillColor=none;spacingLeft=4;spacingRight=4;overflow=hidden;rotatable=0;points=[[0,0.5],[1,0.5]];portConstraint=eastwest;fontSize=12;whiteSpace=wrap;html=1;" vertex="1" parent="G3Xb22IQ4b9X-IVwnKhT-53">
          <mxGeometry y="26" width="160" height="30" as="geometry" />
        </mxCell>
        <mxCell id="G3Xb22IQ4b9X-IVwnKhT-55" value="Количество рефералов" style="text;strokeColor=none;fillColor=none;spacingLeft=4;spacingRight=4;overflow=hidden;rotatable=0;points=[[0,0.5],[1,0.5]];portConstraint=eastwest;fontSize=12;whiteSpace=wrap;html=1;" vertex="1" parent="G3Xb22IQ4b9X-IVwnKhT-53">
          <mxGeometry y="56" width="160" height="30" as="geometry" />
        </mxCell>
        <mxCell id="G3Xb22IQ4b9X-IVwnKhT-56" value="Реферальная ссылка" style="text;strokeColor=none;fillColor=none;spacingLeft=4;spacingRight=4;overflow=hidden;rotatable=0;points=[[0,0.5],[1,0.5]];portConstraint=eastwest;fontSize=12;whiteSpace=wrap;html=1;" vertex="1" parent="G3Xb22IQ4b9X-IVwnKhT-53">
          <mxGeometry y="86" width="160" height="30" as="geometry" />
        </mxCell>
        <mxCell id="G3Xb22IQ4b9X-IVwnKhT-58" style="edgeStyle=orthogonalEdgeStyle;rounded=0;orthogonalLoop=1;jettySize=auto;html=1;" edge="1" parent="1" source="G3Xb22IQ4b9X-IVwnKhT-57" target="G3Xb22IQ4b9X-IVwnKhT-59">
          <mxGeometry relative="1" as="geometry">
            <mxPoint x="30" y="883" as="targetPoint" />
          </mxGeometry>
        </mxCell>
        <mxCell id="G3Xb22IQ4b9X-IVwnKhT-57" value="Кнопки" style="text;html=1;align=center;verticalAlign=middle;resizable=0;points=[];autosize=1;strokeColor=none;fillColor=none;" vertex="1" parent="1">
          <mxGeometry x="70" y="868" width="60" height="30" as="geometry" />
        </mxCell>
        <mxCell id="G3Xb22IQ4b9X-IVwnKhT-59" value="List" style="swimlane;fontStyle=0;childLayout=stackLayout;horizontal=1;startSize=26;horizontalStack=0;resizeParent=1;resizeParentMax=0;resizeLast=0;collapsible=1;marginBottom=0;align=center;fontSize=14;" vertex="1" parent="1">
          <mxGeometry x="-80" y="1065" width="160" height="116" as="geometry" />
        </mxCell>
        <mxCell id="G3Xb22IQ4b9X-IVwnKhT-63" style="edgeStyle=orthogonalEdgeStyle;rounded=0;orthogonalLoop=1;jettySize=auto;html=1;" edge="1" parent="G3Xb22IQ4b9X-IVwnKhT-59" source="G3Xb22IQ4b9X-IVwnKhT-60">
          <mxGeometry relative="1" as="geometry">
            <mxPoint x="-60" y="-35" as="targetPoint" />
          </mxGeometry>
        </mxCell>
        <mxCell id="G3Xb22IQ4b9X-IVwnKhT-60" value="Выключить уведомления" style="text;strokeColor=none;fillColor=none;spacingLeft=4;spacingRight=4;overflow=hidden;rotatable=0;points=[[0,0.5],[1,0.5]];portConstraint=eastwest;fontSize=12;whiteSpace=wrap;html=1;" vertex="1" parent="G3Xb22IQ4b9X-IVwnKhT-59">
          <mxGeometry y="26" width="160" height="30" as="geometry" />
        </mxCell>
        <mxCell id="G3Xb22IQ4b9X-IVwnKhT-65" style="edgeStyle=orthogonalEdgeStyle;rounded=0;orthogonalLoop=1;jettySize=auto;html=1;" edge="1" parent="G3Xb22IQ4b9X-IVwnKhT-59" source="G3Xb22IQ4b9X-IVwnKhT-61">
          <mxGeometry relative="1" as="geometry">
            <mxPoint x="-170" y="71" as="targetPoint" />
          </mxGeometry>
        </mxCell>
        <mxCell id="G3Xb22IQ4b9X-IVwnKhT-61" value="Вывести средства" style="text;strokeColor=none;fillColor=none;spacingLeft=4;spacingRight=4;overflow=hidden;rotatable=0;points=[[0,0.5],[1,0.5]];portConstraint=eastwest;fontSize=12;whiteSpace=wrap;html=1;" vertex="1" parent="G3Xb22IQ4b9X-IVwnKhT-59">
          <mxGeometry y="56" width="160" height="30" as="geometry" />
        </mxCell>
        <mxCell id="G3Xb22IQ4b9X-IVwnKhT-62" value="Item 3" style="text;strokeColor=none;fillColor=none;spacingLeft=4;spacingRight=4;overflow=hidden;rotatable=0;points=[[0,0.5],[1,0.5]];portConstraint=eastwest;fontSize=12;whiteSpace=wrap;html=1;" vertex="1" parent="G3Xb22IQ4b9X-IVwnKhT-59">
          <mxGeometry y="86" width="160" height="30" as="geometry" />
        </mxCell>
        <mxCell id="G3Xb22IQ4b9X-IVwnKhT-64" value="Выключает уведомления и новых рефералах, приведенных с ссылки пользователя" style="text;html=1;align=center;verticalAlign=middle;resizable=0;points=[];autosize=1;strokeColor=none;fillColor=none;" vertex="1" parent="1">
          <mxGeometry x="-540" y="990" width="490" height="30" as="geometry" />
        </mxCell>
        <mxCell id="G3Xb22IQ4b9X-IVwnKhT-67" style="edgeStyle=orthogonalEdgeStyle;rounded=0;orthogonalLoop=1;jettySize=auto;html=1;" edge="1" parent="1" source="G3Xb22IQ4b9X-IVwnKhT-66">
          <mxGeometry relative="1" as="geometry">
            <mxPoint x="-580" y="1200" as="targetPoint" />
          </mxGeometry>
        </mxCell>
        <mxCell id="G3Xb22IQ4b9X-IVwnKhT-68" style="edgeStyle=orthogonalEdgeStyle;rounded=0;orthogonalLoop=1;jettySize=auto;html=1;" edge="1" parent="1" source="G3Xb22IQ4b9X-IVwnKhT-66">
          <mxGeometry relative="1" as="geometry">
            <mxPoint x="-580" y="1080" as="targetPoint" />
          </mxGeometry>
        </mxCell>
        <mxCell id="G3Xb22IQ4b9X-IVwnKhT-66" value="Создает запрос на вывод средств" style="text;html=1;align=center;verticalAlign=middle;resizable=0;points=[];autosize=1;strokeColor=none;fillColor=none;" vertex="1" parent="1">
          <mxGeometry x="-470" y="1120" width="210" height="30" as="geometry" />
        </mxCell>
        <mxCell id="G3Xb22IQ4b9X-IVwnKhT-69" value="Рубли" style="text;html=1;align=center;verticalAlign=middle;resizable=0;points=[];autosize=1;strokeColor=none;fillColor=none;" vertex="1" parent="1">
          <mxGeometry x="-610" y="1199" width="60" height="30" as="geometry" />
        </mxCell>
        <mxCell id="G3Xb22IQ4b9X-IVwnKhT-70" value="USDT" style="text;html=1;align=center;verticalAlign=middle;resizable=0;points=[];autosize=1;strokeColor=none;fillColor=none;" vertex="1" parent="1">
          <mxGeometry x="-610" y="1048" width="60" height="30" as="geometry" />
        </mxCell>
        <mxCell id="G3Xb22IQ4b9X-IVwnKhT-73" value="" style="strokeWidth=2;html=1;shape=mxgraph.flowchart.annotation_2;align=left;labelPosition=right;pointerEvents=1;" vertex="1" parent="1">
          <mxGeometry x="-660" y="1065" width="50" height="151" as="geometry" />
        </mxCell>
        <mxCell id="G3Xb22IQ4b9X-IVwnKhT-75" style="edgeStyle=orthogonalEdgeStyle;rounded=0;orthogonalLoop=1;jettySize=auto;html=1;" edge="1" parent="1" source="G3Xb22IQ4b9X-IVwnKhT-74">
          <mxGeometry relative="1" as="geometry">
            <mxPoint x="-910" y="1140.5" as="targetPoint" />
          </mxGeometry>
        </mxCell>
        <mxCell id="G3Xb22IQ4b9X-IVwnKhT-74" value="Обработка запроса модерацией" style="text;html=1;align=center;verticalAlign=middle;resizable=0;points=[];autosize=1;strokeColor=none;fillColor=none;" vertex="1" parent="1">
          <mxGeometry x="-860" y="1125.5" width="200" height="30" as="geometry" />
        </mxCell>
        <mxCell id="G3Xb22IQ4b9X-IVwnKhT-76" value="Пополнение счета пользователя(автоматически)" style="text;html=1;align=center;verticalAlign=middle;resizable=0;points=[];autosize=1;strokeColor=none;fillColor=none;" vertex="1" parent="1">
          <mxGeometry x="-1210" y="1125.5" width="300" height="30" as="geometry" />
        </mxCell>
        <mxCell id="G3Xb22IQ4b9X-IVwnKhT-78" style="edgeStyle=orthogonalEdgeStyle;rounded=0;orthogonalLoop=1;jettySize=auto;html=1;" edge="1" parent="1" source="G3Xb22IQ4b9X-IVwnKhT-77">
          <mxGeometry relative="1" as="geometry">
            <mxPoint x="990" y="870.5" as="targetPoint" />
          </mxGeometry>
        </mxCell>
        <mxCell id="G3Xb22IQ4b9X-IVwnKhT-77" value="Создать ИИ ассистента" style="text;html=1;align=center;verticalAlign=middle;resizable=0;points=[];autosize=1;strokeColor=none;fillColor=none;" vertex="1" parent="1">
          <mxGeometry x="750" y="855.5" width="160" height="30" as="geometry" />
        </mxCell>
        <mxCell id="G3Xb22IQ4b9X-IVwnKhT-80" style="edgeStyle=orthogonalEdgeStyle;rounded=0;orthogonalLoop=1;jettySize=auto;html=1;" edge="1" parent="1" source="G3Xb22IQ4b9X-IVwnKhT-79">
          <mxGeometry relative="1" as="geometry">
            <mxPoint x="1190" y="870.5" as="targetPoint" />
          </mxGeometry>
        </mxCell>
        <mxCell id="G3Xb22IQ4b9X-IVwnKhT-79" value="Ввод сайта компании" style="text;html=1;align=center;verticalAlign=middle;resizable=0;points=[];autosize=1;strokeColor=none;fillColor=none;" vertex="1" parent="1">
          <mxGeometry x="988" y="855.5" width="140" height="30" as="geometry" />
        </mxCell>
        <mxCell id="G3Xb22IQ4b9X-IVwnKhT-82" style="edgeStyle=orthogonalEdgeStyle;rounded=0;orthogonalLoop=1;jettySize=auto;html=1;" edge="1" parent="1" source="G3Xb22IQ4b9X-IVwnKhT-81">
          <mxGeometry relative="1" as="geometry">
            <mxPoint x="1340" y="870" as="targetPoint" />
          </mxGeometry>
        </mxCell>
        <mxCell id="G3Xb22IQ4b9X-IVwnKhT-81" value="Анализ сайта" style="text;html=1;align=center;verticalAlign=middle;resizable=0;points=[];autosize=1;strokeColor=none;fillColor=none;" vertex="1" parent="1">
          <mxGeometry x="1200" y="855.5" width="100" height="30" as="geometry" />
        </mxCell>
        <mxCell id="G3Xb22IQ4b9X-IVwnKhT-84" style="edgeStyle=orthogonalEdgeStyle;rounded=0;orthogonalLoop=1;jettySize=auto;html=1;" edge="1" parent="1" source="G3Xb22IQ4b9X-IVwnKhT-83">
          <mxGeometry relative="1" as="geometry">
            <mxPoint x="1565" y="920" as="targetPoint" />
          </mxGeometry>
        </mxCell>
        <mxCell id="G3Xb22IQ4b9X-IVwnKhT-83" value="Формирование описания сайта" style="text;html=1;align=center;verticalAlign=middle;resizable=0;points=[];autosize=1;strokeColor=none;fillColor=none;" vertex="1" parent="1">
          <mxGeometry x="1340" y="855.5" width="200" height="30" as="geometry" />
        </mxCell>
        <mxCell id="G3Xb22IQ4b9X-IVwnKhT-87" style="edgeStyle=orthogonalEdgeStyle;rounded=0;orthogonalLoop=1;jettySize=auto;html=1;" edge="1" parent="1" source="G3Xb22IQ4b9X-IVwnKhT-85">
          <mxGeometry relative="1" as="geometry">
            <mxPoint x="1360" y="944" as="targetPoint" />
          </mxGeometry>
        </mxCell>
        <mxCell id="G3Xb22IQ4b9X-IVwnKhT-85" value="Формирование системного промта" style="text;html=1;align=center;verticalAlign=middle;resizable=0;points=[];autosize=1;strokeColor=none;fillColor=none;" vertex="1" parent="1">
          <mxGeometry x="1460" y="929" width="220" height="30" as="geometry" />
        </mxCell>
        <mxCell id="G3Xb22IQ4b9X-IVwnKhT-93" style="edgeStyle=orthogonalEdgeStyle;rounded=0;orthogonalLoop=1;jettySize=auto;html=1;" edge="1" parent="1" source="G3Xb22IQ4b9X-IVwnKhT-88">
          <mxGeometry relative="1" as="geometry">
            <mxPoint x="910" y="944" as="targetPoint" />
          </mxGeometry>
        </mxCell>
        <mxCell id="G3Xb22IQ4b9X-IVwnKhT-88" value="Выдача системного промта и бота для потенциального клиента" style="text;html=1;align=center;verticalAlign=middle;resizable=0;points=[];autosize=1;strokeColor=none;fillColor=none;" vertex="1" parent="1">
          <mxGeometry x="981" y="929" width="380" height="30" as="geometry" />
        </mxCell>
        <mxCell id="G3Xb22IQ4b9X-IVwnKhT-90" value="Готовый ИИ ассистент" style="text;html=1;align=center;verticalAlign=middle;resizable=0;points=[];autosize=1;strokeColor=none;fillColor=none;" vertex="1" parent="1">
          <mxGeometry x="755" y="929" width="150" height="30" as="geometry" />
        </mxCell>
        <mxCell id="G3Xb22IQ4b9X-IVwnKhT-97" style="edgeStyle=orthogonalEdgeStyle;rounded=0;orthogonalLoop=1;jettySize=auto;html=1;entryX=0.553;entryY=-0.233;entryDx=0;entryDy=0;entryPerimeter=0;" edge="1" parent="1" source="G3Xb22IQ4b9X-IVwnKhT-95" target="G3Xb22IQ4b9X-IVwnKhT-13">
          <mxGeometry relative="1" as="geometry">
            <mxPoint x="539" y="519.9999999999998" as="targetPoint" />
          </mxGeometry>
        </mxCell>
        <mxCell id="G3Xb22IQ4b9X-IVwnKhT-95" value="Telegram Bot" style="text;html=1;align=center;verticalAlign=middle;resizable=0;points=[];autosize=1;strokeColor=none;fillColor=none;" vertex="1" parent="1">
          <mxGeometry x="494" y="590" width="90" height="30" as="geometry" />
        </mxCell>
        <mxCell id="G3Xb22IQ4b9X-IVwnKhT-101" value="Аналитика и сбор данных" style="text;html=1;align=center;verticalAlign=middle;resizable=0;points=[];autosize=1;strokeColor=none;fillColor=none;" vertex="1" parent="1">
          <mxGeometry x="-76" y="470" width="170" height="30" as="geometry" />
        </mxCell>
        <mxCell id="G3Xb22IQ4b9X-IVwnKhT-115" value="" style="strokeWidth=2;html=1;shape=mxgraph.flowchart.annotation_2;align=left;labelPosition=right;pointerEvents=1;rotation=-180;" vertex="1" parent="1">
          <mxGeometry x="-130" y="392.5" width="50" height="185" as="geometry" />
        </mxCell>
        <mxCell id="G3Xb22IQ4b9X-IVwnKhT-116" value="Аналитика рефаралов" style="text;html=1;align=center;verticalAlign=middle;resizable=0;points=[];autosize=1;strokeColor=none;fillColor=none;" vertex="1" parent="1">
          <mxGeometry x="-285" y="560" width="150" height="30" as="geometry" />
        </mxCell>
        <mxCell id="G3Xb22IQ4b9X-IVwnKhT-117" value="Аналитика диалогов ИИ" style="text;html=1;align=center;verticalAlign=middle;resizable=0;points=[];autosize=1;strokeColor=none;fillColor=none;" vertex="1" parent="1">
          <mxGeometry x="-285" y="380" width="160" height="30" as="geometry" />
        </mxCell>
        <mxCell id="G3Xb22IQ4b9X-IVwnKhT-122" value="Админ-панель" style="text;html=1;align=center;verticalAlign=middle;resizable=0;points=[];autosize=1;strokeColor=none;fillColor=none;" vertex="1" parent="1">
          <mxGeometry x="-210" y="790" width="100" height="30" as="geometry" />
        </mxCell>
        <mxCell id="G3Xb22IQ4b9X-IVwnKhT-131" style="edgeStyle=orthogonalEdgeStyle;rounded=0;orthogonalLoop=1;jettySize=auto;html=1;" edge="1" parent="1" source="G3Xb22IQ4b9X-IVwnKhT-125">
          <mxGeometry relative="1" as="geometry">
            <mxPoint x="-710" y="755" as="targetPoint" />
          </mxGeometry>
        </mxCell>
        <mxCell id="G3Xb22IQ4b9X-IVwnKhT-125" value="Статистика" style="text;html=1;align=center;verticalAlign=middle;resizable=0;points=[];autosize=1;strokeColor=none;fillColor=none;" vertex="1" parent="1">
          <mxGeometry x="-435" y="740" width="90" height="30" as="geometry" />
        </mxCell>
        <mxCell id="G3Xb22IQ4b9X-IVwnKhT-144" style="edgeStyle=orthogonalEdgeStyle;rounded=0;orthogonalLoop=1;jettySize=auto;html=1;" edge="1" parent="1" source="G3Xb22IQ4b9X-IVwnKhT-126">
          <mxGeometry relative="1" as="geometry">
            <mxPoint x="-970" y="853" as="targetPoint" />
          </mxGeometry>
        </mxCell>
        <mxCell id="G3Xb22IQ4b9X-IVwnKhT-126" value="Экспорт данных" style="text;html=1;align=center;verticalAlign=middle;resizable=0;points=[];autosize=1;strokeColor=none;fillColor=none;" vertex="1" parent="1">
          <mxGeometry x="-455" y="838" width="110" height="30" as="geometry" />
        </mxCell>
        <mxCell id="G3Xb22IQ4b9X-IVwnKhT-128" style="edgeStyle=orthogonalEdgeStyle;rounded=0;orthogonalLoop=1;jettySize=auto;html=1;entryX=1;entryY=0.733;entryDx=0;entryDy=0;entryPerimeter=0;" edge="1" parent="1" source="G3Xb22IQ4b9X-IVwnKhT-122" target="G3Xb22IQ4b9X-IVwnKhT-126">
          <mxGeometry relative="1" as="geometry" />
        </mxCell>
        <mxCell id="G3Xb22IQ4b9X-IVwnKhT-129" style="edgeStyle=orthogonalEdgeStyle;rounded=0;orthogonalLoop=1;jettySize=auto;html=1;entryX=0.989;entryY=0.567;entryDx=0;entryDy=0;entryPerimeter=0;" edge="1" parent="1" source="G3Xb22IQ4b9X-IVwnKhT-122" target="G3Xb22IQ4b9X-IVwnKhT-125">
          <mxGeometry relative="1" as="geometry" />
        </mxCell>
        <mxCell id="G3Xb22IQ4b9X-IVwnKhT-130" value="Инфографика" style="text;html=1;align=center;verticalAlign=middle;resizable=0;points=[];autosize=1;strokeColor=none;fillColor=none;" vertex="1" parent="1">
          <mxGeometry x="-445" y="790" width="100" height="30" as="geometry" />
        </mxCell>
        <mxCell id="G3Xb22IQ4b9X-IVwnKhT-136" value="Пользователи" style="swimlane;fontStyle=0;childLayout=stackLayout;horizontal=1;startSize=26;horizontalStack=0;resizeParent=1;resizeParentMax=0;resizeLast=0;collapsible=1;marginBottom=0;align=center;fontSize=14;" vertex="1" parent="1">
          <mxGeometry x="-1140" y="760" width="160" height="200" as="geometry" />
        </mxCell>
        <mxCell id="G3Xb22IQ4b9X-IVwnKhT-137" value="Username" style="text;strokeColor=none;fillColor=none;spacingLeft=4;spacingRight=4;overflow=hidden;rotatable=0;points=[[0,0.5],[1,0.5]];portConstraint=eastwest;fontSize=12;whiteSpace=wrap;html=1;" vertex="1" parent="G3Xb22IQ4b9X-IVwnKhT-136">
          <mxGeometry y="26" width="160" height="30" as="geometry" />
        </mxCell>
        <mxCell id="G3Xb22IQ4b9X-IVwnKhT-138" value="Реферальный баланс" style="text;strokeColor=none;fillColor=none;spacingLeft=4;spacingRight=4;overflow=hidden;rotatable=0;points=[[0,0.5],[1,0.5]];portConstraint=eastwest;fontSize=12;whiteSpace=wrap;html=1;" vertex="1" parent="G3Xb22IQ4b9X-IVwnKhT-136">
          <mxGeometry y="56" width="160" height="30" as="geometry" />
        </mxCell>
        <mxCell id="G3Xb22IQ4b9X-IVwnKhT-139" value="Уведомления&lt;div&gt;&lt;br&gt;&lt;/div&gt;&lt;div&gt;Сколько ИИ подключено&lt;br&gt;&lt;br&gt;Реферальный код&lt;br&gt;&lt;br&gt;Кто пригласил&lt;/div&gt;" style="text;strokeColor=none;fillColor=none;spacingLeft=4;spacingRight=4;overflow=hidden;rotatable=0;points=[[0,0.5],[1,0.5]];portConstraint=eastwest;fontSize=12;whiteSpace=wrap;html=1;" vertex="1" parent="G3Xb22IQ4b9X-IVwnKhT-136">
          <mxGeometry y="86" width="160" height="114" as="geometry" />
        </mxCell>
        <mxCell id="G3Xb22IQ4b9X-IVwnKhT-140" value="Показатели статистики" style="swimlane;fontStyle=0;childLayout=stackLayout;horizontal=1;startSize=26;horizontalStack=0;resizeParent=1;resizeParentMax=0;resizeLast=0;collapsible=1;marginBottom=0;align=center;fontSize=14;" vertex="1" parent="1">
          <mxGeometry x="-880" y="640" width="160" height="140" as="geometry" />
        </mxCell>
        <mxCell id="G3Xb22IQ4b9X-IVwnKhT-141" value="Количество рефералов" style="text;strokeColor=none;fillColor=none;spacingLeft=4;spacingRight=4;overflow=hidden;rotatable=0;points=[[0,0.5],[1,0.5]];portConstraint=eastwest;fontSize=12;whiteSpace=wrap;html=1;" vertex="1" parent="G3Xb22IQ4b9X-IVwnKhT-140">
          <mxGeometry y="26" width="160" height="30" as="geometry" />
        </mxCell>
        <mxCell id="G3Xb22IQ4b9X-IVwnKhT-142" value="Количество юзеров" style="text;strokeColor=none;fillColor=none;spacingLeft=4;spacingRight=4;overflow=hidden;rotatable=0;points=[[0,0.5],[1,0.5]];portConstraint=eastwest;fontSize=12;whiteSpace=wrap;html=1;" vertex="1" parent="G3Xb22IQ4b9X-IVwnKhT-140">
          <mxGeometry y="56" width="160" height="30" as="geometry" />
        </mxCell>
        <mxCell id="G3Xb22IQ4b9X-IVwnKhT-143" value="Общий баланс&lt;br&gt;&lt;br&gt;Подключенные боты" style="text;strokeColor=none;fillColor=none;spacingLeft=4;spacingRight=4;overflow=hidden;rotatable=0;points=[[0,0.5],[1,0.5]];portConstraint=eastwest;fontSize=12;whiteSpace=wrap;html=1;" vertex="1" parent="G3Xb22IQ4b9X-IVwnKhT-140">
          <mxGeometry y="86" width="160" height="54" as="geometry" />
        </mxCell>
      </root>
    </mxGraphModel>
  </diagram>
</mxfile>
